<svg xmlns="http://www.w3.org/2000/svg" version="1.1" xmlns:xlink="http://www.w3.org/1999/xlink" xmlns:svgjs="http://svgjs.com/svgjs" width="1440" height="640" preserveAspectRatio="none" viewBox="0 0 1440 640"><g mask="url(&quot;#SvgjsMask3330&quot;)" fill="none"><g mask="url(&quot;#SvgjsMask3332&quot;)"><path d="M1435.5 333.5L1406.5 304.5M1464.5 333.5L1435.5 333.5L1406.5 333.5L1377.5 333.5L1348.5 333.5" stroke="url(#SvgjsLinearGradient3331)" stroke-width="4.83"></path><path d="M1341.25 333.5 a7.25 7.25 0 1 0 14.5 0 a7.25 7.25 0 1 0 -14.5 0zM1399.25 304.5 a7.25 7.25 0 1 0 14.5 0 a7.25 7.25 0 1 0 -14.5 0z" fill="url(#SvgjsLinearGradient3331)"></path><path d="M1290.5 362.5L1261.5 333.5L1232.5 333.5L1203.5 333.5L1174.5 333.5L1145.5 333.5L1116.5 333.5L1087.5 333.5M594.5 420.5L565.5 391.5L536.5 391.5M942.5 391.5L913.5 362.5L884.5 362.5M1087.5 362.5L1058.5 391.5L1029.5 391.5M739.5 391.5L710.5 362.5L681.5 333.5L652.5 333.5L623.5 333.5L594.5 333.5L565.5 333.5L536.5 333.5L507.5 333.5M797.5 391.5L768.5 362.5L739.5 333.5L710.5 333.5M1116.5 362.5L1087.5 391.5M478.5 391.5L449.5 420.5M507.5 391.5L478.5 420.5M1464.5 362.5L1435.5 362.5L1406.5 362.5L1377.5 362.5L1348.5 362.5L1319.5 362.5L1290.5 362.5L1261.5 362.5L1232.5 362.5L1203.5 362.5L1174.5 362.5L1145.5 362.5L1116.5 362.5L1087.5 362.5L1058.5 362.5L1029.5 362.5L1000.5 391.5L971.5 391.5L942.5 391.5L913.5 391.5L884.5 391.5L855.5 391.5L826.5 391.5L797.5 391.5L768.5 391.5L739.5 391.5L710.5 391.5L681.5 420.5L652.5 420.5L623.5 420.5L594.5 420.5L565.5 420.5L536.5 420.5L507.5 391.5L478.5 391.5L449.5 391.5L420.5 420.5" stroke="url(#SvgjsLinearGradient3331)" stroke-width="4.83"></path><path d="M413.25 420.5 a7.25 7.25 0 1 0 14.5 0 a7.25 7.25 0 1 0 -14.5 0zM1080.25 333.5 a7.25 7.25 0 1 0 14.5 0 a7.25 7.25 0 1 0 -14.5 0zM529.25 391.5 a7.25 7.25 0 1 0 14.5 0 a7.25 7.25 0 1 0 -14.5 0zM877.25 362.5 a7.25 7.25 0 1 0 14.5 0 a7.25 7.25 0 1 0 -14.5 0zM1022.25 391.5 a7.25 7.25 0 1 0 14.5 0 a7.25 7.25 0 1 0 -14.5 0zM500.25 333.5 a7.25 7.25 0 1 0 14.5 0 a7.25 7.25 0 1 0 -14.5 0zM703.25 333.5 a7.25 7.25 0 1 0 14.5 0 a7.25 7.25 0 1 0 -14.5 0zM1080.25 391.5 a7.25 7.25 0 1 0 14.5 0 a7.25 7.25 0 1 0 -14.5 0zM442.25 420.5 a7.25 7.25 0 1 0 14.5 0 a7.25 7.25 0 1 0 -14.5 0zM471.25 420.5 a7.25 7.25 0 1 0 14.5 0 a7.25 7.25 0 1 0 -14.5 0z" fill="url(#SvgjsLinearGradient3331)"></path><path d="M710.5 304.5L681.5 275.5L652.5 275.5M333.5 304.5L304.5 275.5L275.5 275.5L246.5 275.5L217.5 246.5M565.5 304.5L536.5 275.5L507.5 275.5M884.5 333.5L855.5 333.5L826.5 333.5L797.5 333.5L768.5 333.5M304.5 304.5L275.5 333.5L246.5 333.5M1348.5 304.5L1319.5 275.5M391.5 304.5L362.5 275.5L333.5 275.5M1029.5 304.5L1000.5 333.5M449.5 304.5L420.5 333.5L391.5 333.5L362.5 333.5L333.5 333.5L304.5 333.5L275.5 362.5L246.5 362.5L217.5 362.5L188.5 362.5L159.5 362.5L130.5 362.5M1406.5 275.5L1377.5 275.5L1348.5 275.5M1464.5 275.5L1435.5 275.5L1406.5 275.5L1377.5 304.5L1348.5 304.5L1319.5 304.5L1290.5 304.5L1261.5 304.5L1232.5 304.5L1203.5 304.5L1174.5 304.5L1145.5 304.5L1116.5 304.5L1087.5 304.5L1058.5 304.5L1029.5 304.5L1000.5 304.5L971.5 304.5L942.5 304.5L913.5 333.5L884.5 333.5L855.5 304.5L826.5 304.5L797.5 304.5L768.5 304.5L739.5 304.5L710.5 304.5L681.5 304.5L652.5 304.5L623.5 304.5L594.5 304.5L565.5 304.5L536.5 304.5L507.5 304.5L478.5 304.5L449.5 304.5L420.5 304.5L391.5 304.5L362.5 304.5L333.5 304.5L304.5 304.5L275.5 304.5L246.5 304.5" stroke="url(#SvgjsLinearGradient3331)" stroke-width="4.83"></path><path d="M239.25 304.5 a7.25 7.25 0 1 0 14.5 0 a7.25 7.25 0 1 0 -14.5 0zM645.25 275.5 a7.25 7.25 0 1 0 14.5 0 a7.25 7.25 0 1 0 -14.5 0zM210.25 246.5 a7.25 7.25 0 1 0 14.5 0 a7.25 7.25 0 1 0 -14.5 0zM500.25 275.5 a7.25 7.25 0 1 0 14.5 0 a7.25 7.25 0 1 0 -14.5 0zM761.25 333.5 a7.25 7.25 0 1 0 14.5 0 a7.25 7.25 0 1 0 -14.5 0zM239.25 333.5 a7.25 7.25 0 1 0 14.5 0 a7.25 7.25 0 1 0 -14.5 0zM1312.25 275.5 a7.25 7.25 0 1 0 14.5 0 a7.25 7.25 0 1 0 -14.5 0zM326.25 275.5 a7.25 7.25 0 1 0 14.5 0 a7.25 7.25 0 1 0 -14.5 0zM993.25 333.5 a7.25 7.25 0 1 0 14.5 0 a7.25 7.25 0 1 0 -14.5 0zM123.25 362.5 a7.25 7.25 0 1 0 14.5 0 a7.25 7.25 0 1 0 -14.5 0zM1341.25 275.5 a7.25 7.25 0 1 0 14.5 0 a7.25 7.25 0 1 0 -14.5 0z" fill="url(#SvgjsLinearGradient3331)"></path><path d="M1290.5 391.5L1261.5 420.5L1232.5 420.5L1203.5 420.5L1174.5 420.5L1145.5 420.5M1348.5 391.5L1319.5 420.5M420.5 449.5L391.5 478.5L362.5 478.5L333.5 478.5L304.5 478.5L275.5 478.5L246.5 478.5L217.5 478.5M536.5 449.5L507.5 478.5L478.5 478.5M449.5 449.5L420.5 478.5L391.5 507.5M1145.5 391.5L1116.5 391.5M884.5 420.5L855.5 449.5L826.5 449.5L797.5 449.5M652.5 449.5L623.5 478.5L594.5 478.5L565.5 478.5L536.5 478.5M913.5 420.5L884.5 449.5M1464.5 391.5L1435.5 391.5L1406.5 391.5L1377.5 391.5L1348.5 391.5L1319.5 391.5L1290.5 391.5L1261.5 391.5L1232.5 391.5L1203.5 391.5L1174.5 391.5L1145.5 391.5L1116.5 420.5L1087.5 420.5L1058.5 420.5L1029.5 420.5L1000.5 420.5L971.5 420.5L942.5 420.5L913.5 420.5L884.5 420.5L855.5 420.5L826.5 420.5L797.5 420.5L768.5 420.5L739.5 420.5L710.5 420.5L681.5 449.5L652.5 449.5L623.5 449.5L594.5 449.5L565.5 449.5L536.5 449.5L507.5 449.5L478.5 449.5L449.5 449.5L420.5 449.5L391.5 449.5L362.5 449.5" stroke="url(#SvgjsLinearGradient3331)" stroke-width="4.83"></path><path d="M355.25 449.5 a7.25 7.25 0 1 0 14.5 0 a7.25 7.25 0 1 0 -14.5 0zM1138.25 420.5 a7.25 7.25 0 1 0 14.5 0 a7.25 7.25 0 1 0 -14.5 0zM1312.25 420.5 a7.25 7.25 0 1 0 14.5 0 a7.25 7.25 0 1 0 -14.5 0zM210.25 478.5 a7.25 7.25 0 1 0 14.5 0 a7.25 7.25 0 1 0 -14.5 0zM471.25 478.5 a7.25 7.25 0 1 0 14.5 0 a7.25 7.25 0 1 0 -14.5 0zM384.25 507.5 a7.25 7.25 0 1 0 14.5 0 a7.25 7.25 0 1 0 -14.5 0zM1109.25 391.5 a7.25 7.25 0 1 0 14.5 0 a7.25 7.25 0 1 0 -14.5 0zM790.25 449.5 a7.25 7.25 0 1 0 14.5 0 a7.25 7.25 0 1 0 -14.5 0zM529.25 478.5 a7.25 7.25 0 1 0 14.5 0 a7.25 7.25 0 1 0 -14.5 0zM877.25 449.5 a7.25 7.25 0 1 0 14.5 0 a7.25 7.25 0 1 0 -14.5 0z" fill="url(#SvgjsLinearGradient3331)"></path><path d="M1319.5 246.5L1290.5 217.5M1290.5 246.5L1261.5 275.5L1232.5 275.5L1203.5 275.5M1174.5 275.5L1145.5 246.5L1116.5 246.5L1087.5 246.5M1029.5 246.5L1000.5 246.5L971.5 246.5L942.5 217.5L913.5 217.5M1464.5 246.5L1435.5 246.5L1406.5 246.5L1377.5 246.5L1348.5 246.5L1319.5 246.5L1290.5 246.5L1261.5 246.5L1232.5 246.5L1203.5 246.5L1174.5 275.5L1145.5 275.5L1116.5 275.5L1087.5 275.5L1058.5 246.5L1029.5 246.5L1000.5 275.5" stroke="url(#SvgjsLinearGradient3331)" stroke-width="4.83"></path><path d="M993.25 275.5 a7.25 7.25 0 1 0 14.5 0 a7.25 7.25 0 1 0 -14.5 0zM1283.25 217.5 a7.25 7.25 0 1 0 14.5 0 a7.25 7.25 0 1 0 -14.5 0zM1196.25 275.5 a7.25 7.25 0 1 0 14.5 0 a7.25 7.25 0 1 0 -14.5 0zM1080.25 246.5 a7.25 7.25 0 1 0 14.5 0 a7.25 7.25 0 1 0 -14.5 0zM906.25 217.5 a7.25 7.25 0 1 0 14.5 0 a7.25 7.25 0 1 0 -14.5 0z" fill="url(#SvgjsLinearGradient3331)"></path><path d="M739.5 449.5L710.5 478.5M1116.5 449.5L1087.5 478.5L1058.5 478.5L1029.5 478.5M652.5 507.5L623.5 536.5M594.5 507.5L565.5 536.5L536.5 536.5L507.5 536.5L478.5 536.5M913.5 478.5L884.5 507.5L855.5 507.5L826.5 507.5L797.5 507.5L768.5 507.5L739.5 507.5M971.5 449.5L942.5 478.5L913.5 507.5M1377.5 420.5L1348.5 420.5M942.5 449.5L913.5 449.5M1464.5 420.5L1435.5 420.5L1406.5 420.5L1377.5 420.5L1348.5 449.5L1319.5 449.5L1290.5 449.5L1261.5 449.5L1232.5 449.5L1203.5 449.5L1174.5 449.5L1145.5 449.5L1116.5 449.5L1087.5 449.5L1058.5 449.5L1029.5 449.5L1000.5 449.5L971.5 449.5L942.5 449.5L913.5 478.5L884.5 478.5L855.5 478.5L826.5 478.5L797.5 478.5L768.5 449.5L739.5 449.5L710.5 449.5L681.5 478.5L652.5 507.5L623.5 507.5L594.5 507.5L565.5 507.5L536.5 507.5" stroke="url(#SvgjsLinearGradient3331)" stroke-width="4.83"></path><path d="M529.25 507.5 a7.25 7.25 0 1 0 14.5 0 a7.25 7.25 0 1 0 -14.5 0zM703.25 478.5 a7.25 7.25 0 1 0 14.5 0 a7.25 7.25 0 1 0 -14.5 0zM1022.25 478.5 a7.25 7.25 0 1 0 14.5 0 a7.25 7.25 0 1 0 -14.5 0zM616.25 536.5 a7.25 7.25 0 1 0 14.5 0 a7.25 7.25 0 1 0 -14.5 0zM471.25 536.5 a7.25 7.25 0 1 0 14.5 0 a7.25 7.25 0 1 0 -14.5 0zM732.25 507.5 a7.25 7.25 0 1 0 14.5 0 a7.25 7.25 0 1 0 -14.5 0zM906.25 507.5 a7.25 7.25 0 1 0 14.5 0 a7.25 7.25 0 1 0 -14.5 0zM1341.25 420.5 a7.25 7.25 0 1 0 14.5 0 a7.25 7.25 0 1 0 -14.5 0zM906.25 449.5 a7.25 7.25 0 1 0 14.5 0 a7.25 7.25 0 1 0 -14.5 0z" fill="url(#SvgjsLinearGradient3331)"></path><path d="M797.5 188.5L768.5 217.5M1000.5 188.5L971.5 217.5M1348.5 217.5L1319.5 217.5M1116.5 217.5L1087.5 188.5L1058.5 188.5M1174.5 217.5L1145.5 188.5L1116.5 188.5M1029.5 217.5L1000.5 217.5M1464.5 217.5L1435.5 217.5L1406.5 217.5L1377.5 217.5L1348.5 217.5L1319.5 188.5L1290.5 188.5L1261.5 188.5L1232.5 217.5L1203.5 217.5L1174.5 217.5L1145.5 217.5L1116.5 217.5L1087.5 217.5L1058.5 217.5L1029.5 217.5L1000.5 188.5L971.5 188.5L942.5 188.5L913.5 188.5L884.5 188.5L855.5 188.5L826.5 188.5L797.5 188.5L768.5 188.5" stroke="url(#SvgjsLinearGradient3331)" stroke-width="4.83"></path><path d="M761.25 188.5 a7.25 7.25 0 1 0 14.5 0 a7.25 7.25 0 1 0 -14.5 0zM761.25 217.5 a7.25 7.25 0 1 0 14.5 0 a7.25 7.25 0 1 0 -14.5 0zM964.25 217.5 a7.25 7.25 0 1 0 14.5 0 a7.25 7.25 0 1 0 -14.5 0zM1312.25 217.5 a7.25 7.25 0 1 0 14.5 0 a7.25 7.25 0 1 0 -14.5 0zM1051.25 188.5 a7.25 7.25 0 1 0 14.5 0 a7.25 7.25 0 1 0 -14.5 0zM1109.25 188.5 a7.25 7.25 0 1 0 14.5 0 a7.25 7.25 0 1 0 -14.5 0zM993.25 217.5 a7.25 7.25 0 1 0 14.5 0 a7.25 7.25 0 1 0 -14.5 0z" fill="url(#SvgjsLinearGradient3331)"></path><path d="M1319.5 478.5L1290.5 507.5L1261.5 507.5L1232.5 507.5L1203.5 507.5M1174.5 507.5L1145.5 536.5M971.5 536.5L942.5 565.5M1435.5 449.5L1406.5 478.5L1377.5 507.5L1348.5 507.5L1319.5 507.5M1464.5 449.5L1435.5 449.5L1406.5 449.5L1377.5 478.5L1348.5 478.5L1319.5 478.5L1290.5 478.5L1261.5 478.5L1232.5 478.5L1203.5 478.5L1174.5 507.5L1145.5 507.5L1116.5 536.5L1087.5 536.5L1058.5 536.5L1029.5 536.5L1000.5 536.5L971.5 536.5L942.5 536.5" stroke="url(#SvgjsLinearGradient3331)" stroke-width="4.83"></path><path d="M935.25 536.5 a7.25 7.25 0 1 0 14.5 0 a7.25 7.25 0 1 0 -14.5 0zM1196.25 507.5 a7.25 7.25 0 1 0 14.5 0 a7.25 7.25 0 1 0 -14.5 0zM1138.25 536.5 a7.25 7.25 0 1 0 14.5 0 a7.25 7.25 0 1 0 -14.5 0zM935.25 565.5 a7.25 7.25 0 1 0 14.5 0 a7.25 7.25 0 1 0 -14.5 0zM1312.25 507.5 a7.25 7.25 0 1 0 14.5 0 a7.25 7.25 0 1 0 -14.5 0z" fill="url(#SvgjsLinearGradient3331)"></path><path d="M507.5 159.5L478.5 130.5L449.5 130.5L420.5 130.5M1029.5 159.5L1000.5 130.5L971.5 130.5M1058.5 159.5L1029.5 130.5L1000.5 101.5L971.5 101.5L942.5 130.5L913.5 130.5L884.5 130.5M1087.5 159.5L1058.5 130.5L1029.5 101.5L1000.5 72.5L971.5 72.5L942.5 72.5L913.5 72.5L884.5 72.5L855.5 72.5L826.5 72.5L797.5 72.5L768.5 72.5L739.5 72.5M594.5 159.5L565.5 130.5L536.5 130.5L507.5 130.5L478.5 101.5L449.5 101.5L420.5 101.5M768.5 159.5L739.5 130.5L710.5 130.5M1116.5 159.5L1087.5 130.5M681.5 159.5L652.5 188.5L623.5 188.5L594.5 188.5M1232.5 159.5L1203.5 130.5L1174.5 130.5L1145.5 130.5L1116.5 101.5L1087.5 101.5L1058.5 101.5L1029.5 72.5M391.5 159.5L362.5 130.5L333.5 130.5L304.5 130.5M1435.5 188.5L1406.5 159.5L1377.5 159.5L1348.5 159.5L1319.5 130.5L1290.5 130.5L1261.5 130.5L1232.5 130.5L1203.5 101.5L1174.5 101.5M1464.5 188.5L1435.5 188.5L1406.5 188.5L1377.5 188.5L1348.5 188.5L1319.5 159.5L1290.5 159.5L1261.5 159.5L1232.5 159.5L1203.5 159.5L1174.5 159.5L1145.5 159.5L1116.5 159.5L1087.5 159.5L1058.5 159.5L1029.5 159.5L1000.5 159.5L971.5 159.5L942.5 159.5L913.5 159.5L884.5 159.5L855.5 159.5L826.5 159.5L797.5 159.5L768.5 159.5L739.5 159.5L710.5 159.5L681.5 159.5L652.5 159.5L623.5 159.5L594.5 159.5L565.5 159.5L536.5 159.5L507.5 159.5L478.5 159.5L449.5 159.5L420.5 159.5L391.5 159.5L362.5 159.5L333.5 188.5L304.5 217.5L275.5 217.5L246.5 217.5L217.5 217.5" stroke="url(#SvgjsLinearGradient3331)" stroke-width="4.83"></path><path d="M210.25 217.5 a7.25 7.25 0 1 0 14.5 0 a7.25 7.25 0 1 0 -14.5 0zM413.25 130.5 a7.25 7.25 0 1 0 14.5 0 a7.25 7.25 0 1 0 -14.5 0zM964.25 130.5 a7.25 7.25 0 1 0 14.5 0 a7.25 7.25 0 1 0 -14.5 0zM877.25 130.5 a7.25 7.25 0 1 0 14.5 0 a7.25 7.25 0 1 0 -14.5 0zM732.25 72.5 a7.25 7.25 0 1 0 14.5 0 a7.25 7.25 0 1 0 -14.5 0zM413.25 101.5 a7.25 7.25 0 1 0 14.5 0 a7.25 7.25 0 1 0 -14.5 0zM703.25 130.5 a7.25 7.25 0 1 0 14.5 0 a7.25 7.25 0 1 0 -14.5 0zM1080.25 130.5 a7.25 7.25 0 1 0 14.5 0 a7.25 7.25 0 1 0 -14.5 0zM587.25 188.5 a7.25 7.25 0 1 0 14.5 0 a7.25 7.25 0 1 0 -14.5 0zM1022.25 72.5 a7.25 7.25 0 1 0 14.5 0 a7.25 7.25 0 1 0 -14.5 0zM297.25 130.5 a7.25 7.25 0 1 0 14.5 0 a7.25 7.25 0 1 0 -14.5 0zM1167.25 101.5 a7.25 7.25 0 1 0 14.5 0 a7.25 7.25 0 1 0 -14.5 0z" fill="url(#SvgjsLinearGradient3331)"></path></g></g><defs><mask id="SvgjsMask3330"><rect width="1440" height="640" fill="#ffffff"></rect></mask><linearGradient x1="243.25631999999993" y1="-185.6" x2="1254.34368" y2="825.6" gradientUnits="userSpaceOnUse" id="SvgjsLinearGradient3331"><stop stop-color="rgba(204, 255, 51, 1)" offset="0.08"></stop><stop stop-color="rgba(0, 100, 0, 1)" offset="0.19"></stop><stop stop-color="rgba(112, 224, 0, 1)" offset="0.45"></stop><stop stop-color="rgba(0, 128, 0, 1)" offset="0.69"></stop><stop stop-color="rgba(56, 176, 0, 1)" offset="0.82"></stop><stop stop-color="rgba(0, 75, 35, 1)" offset="0.9"></stop></linearGradient><mask id="SvgjsMask3332"><rect width="1440" height="640" fill="white"></rect><path d="M1344.87 333.5 a3.63 3.63 0 1 0 7.26 0 a3.63 3.63 0 1 0 -7.26 0zM1402.87 304.5 a3.63 3.63 0 1 0 7.26 0 a3.63 3.63 0 1 0 -7.26 0z" fill="black"></path><path d="M416.87 420.5 a3.63 3.63 0 1 0 7.26 0 a3.63 3.63 0 1 0 -7.26 0zM1083.87 333.5 a3.63 3.63 0 1 0 7.26 0 a3.63 3.63 0 1 0 -7.26 0zM532.87 391.5 a3.63 3.63 0 1 0 7.26 0 a3.63 3.63 0 1 0 -7.26 0zM880.87 362.5 a3.63 3.63 0 1 0 7.26 0 a3.63 3.63 0 1 0 -7.26 0zM1025.87 391.5 a3.63 3.63 0 1 0 7.26 0 a3.63 3.63 0 1 0 -7.26 0zM503.87 333.5 a3.63 3.63 0 1 0 7.26 0 a3.63 3.63 0 1 0 -7.26 0zM706.87 333.5 a3.63 3.63 0 1 0 7.26 0 a3.63 3.63 0 1 0 -7.26 0zM1083.87 391.5 a3.63 3.63 0 1 0 7.26 0 a3.63 3.63 0 1 0 -7.26 0zM445.87 420.5 a3.63 3.63 0 1 0 7.26 0 a3.63 3.63 0 1 0 -7.26 0zM474.87 420.5 a3.63 3.63 0 1 0 7.26 0 a3.63 3.63 0 1 0 -7.26 0z" fill="black"></path><path d="M242.87 304.5 a3.63 3.63 0 1 0 7.26 0 a3.63 3.63 0 1 0 -7.26 0zM648.87 275.5 a3.63 3.63 0 1 0 7.26 0 a3.63 3.63 0 1 0 -7.26 0zM213.87 246.5 a3.63 3.63 0 1 0 7.26 0 a3.63 3.63 0 1 0 -7.26 0zM503.87 275.5 a3.63 3.63 0 1 0 7.26 0 a3.63 3.63 0 1 0 -7.26 0zM764.87 333.5 a3.63 3.63 0 1 0 7.26 0 a3.63 3.63 0 1 0 -7.26 0zM242.87 333.5 a3.63 3.63 0 1 0 7.26 0 a3.63 3.63 0 1 0 -7.26 0zM1315.87 275.5 a3.63 3.63 0 1 0 7.26 0 a3.63 3.63 0 1 0 -7.26 0zM329.87 275.5 a3.63 3.63 0 1 0 7.26 0 a3.63 3.63 0 1 0 -7.26 0zM996.87 333.5 a3.63 3.63 0 1 0 7.26 0 a3.63 3.63 0 1 0 -7.26 0zM126.87 362.5 a3.63 3.63 0 1 0 7.26 0 a3.63 3.63 0 1 0 -7.26 0zM1344.87 275.5 a3.63 3.63 0 1 0 7.26 0 a3.63 3.63 0 1 0 -7.26 0z" fill="black"></path><path d="M358.87 449.5 a3.63 3.63 0 1 0 7.26 0 a3.63 3.63 0 1 0 -7.26 0zM1141.87 420.5 a3.63 3.63 0 1 0 7.26 0 a3.63 3.63 0 1 0 -7.26 0zM1315.87 420.5 a3.63 3.63 0 1 0 7.26 0 a3.63 3.63 0 1 0 -7.26 0zM213.87 478.5 a3.63 3.63 0 1 0 7.26 0 a3.63 3.63 0 1 0 -7.26 0zM474.87 478.5 a3.63 3.63 0 1 0 7.26 0 a3.63 3.63 0 1 0 -7.26 0zM387.87 507.5 a3.63 3.63 0 1 0 7.26 0 a3.63 3.63 0 1 0 -7.26 0zM1112.87 391.5 a3.63 3.63 0 1 0 7.26 0 a3.63 3.63 0 1 0 -7.26 0zM793.87 449.5 a3.63 3.63 0 1 0 7.26 0 a3.63 3.63 0 1 0 -7.26 0zM532.87 478.5 a3.63 3.63 0 1 0 7.26 0 a3.63 3.63 0 1 0 -7.26 0zM880.87 449.5 a3.63 3.63 0 1 0 7.26 0 a3.63 3.63 0 1 0 -7.26 0z" fill="black"></path><path d="M996.87 275.5 a3.63 3.63 0 1 0 7.26 0 a3.63 3.63 0 1 0 -7.26 0zM1286.87 217.5 a3.63 3.63 0 1 0 7.26 0 a3.63 3.63 0 1 0 -7.26 0zM1199.87 275.5 a3.63 3.63 0 1 0 7.26 0 a3.63 3.63 0 1 0 -7.26 0zM1083.87 246.5 a3.63 3.63 0 1 0 7.26 0 a3.63 3.63 0 1 0 -7.26 0zM909.87 217.5 a3.63 3.63 0 1 0 7.26 0 a3.63 3.63 0 1 0 -7.26 0z" fill="black"></path><path d="M532.87 507.5 a3.63 3.63 0 1 0 7.26 0 a3.63 3.63 0 1 0 -7.26 0zM706.87 478.5 a3.63 3.63 0 1 0 7.26 0 a3.63 3.63 0 1 0 -7.26 0zM1025.87 478.5 a3.63 3.63 0 1 0 7.26 0 a3.63 3.63 0 1 0 -7.26 0zM619.87 536.5 a3.63 3.63 0 1 0 7.26 0 a3.63 3.63 0 1 0 -7.26 0zM474.87 536.5 a3.63 3.63 0 1 0 7.26 0 a3.63 3.63 0 1 0 -7.26 0zM735.87 507.5 a3.63 3.63 0 1 0 7.26 0 a3.63 3.63 0 1 0 -7.26 0zM909.87 507.5 a3.63 3.63 0 1 0 7.26 0 a3.63 3.63 0 1 0 -7.26 0zM1344.87 420.5 a3.63 3.63 0 1 0 7.26 0 a3.63 3.63 0 1 0 -7.26 0zM909.87 449.5 a3.63 3.63 0 1 0 7.26 0 a3.63 3.63 0 1 0 -7.26 0z" fill="black"></path><path d="M764.87 188.5 a3.63 3.63 0 1 0 7.26 0 a3.63 3.63 0 1 0 -7.26 0zM764.87 217.5 a3.63 3.63 0 1 0 7.26 0 a3.63 3.63 0 1 0 -7.26 0zM967.87 217.5 a3.63 3.63 0 1 0 7.26 0 a3.63 3.63 0 1 0 -7.26 0zM1315.87 217.5 a3.63 3.63 0 1 0 7.26 0 a3.63 3.63 0 1 0 -7.26 0zM1054.87 188.5 a3.63 3.63 0 1 0 7.26 0 a3.63 3.63 0 1 0 -7.26 0zM1112.87 188.5 a3.63 3.63 0 1 0 7.26 0 a3.63 3.63 0 1 0 -7.26 0zM996.87 217.5 a3.63 3.63 0 1 0 7.26 0 a3.63 3.63 0 1 0 -7.26 0z" fill="black"></path><path d="M938.87 536.5 a3.63 3.63 0 1 0 7.26 0 a3.63 3.63 0 1 0 -7.26 0zM1199.87 507.5 a3.63 3.63 0 1 0 7.26 0 a3.63 3.63 0 1 0 -7.26 0zM1141.87 536.5 a3.63 3.63 0 1 0 7.26 0 a3.63 3.63 0 1 0 -7.26 0zM938.87 565.5 a3.63 3.63 0 1 0 7.26 0 a3.63 3.63 0 1 0 -7.26 0zM1315.87 507.5 a3.63 3.63 0 1 0 7.26 0 a3.63 3.63 0 1 0 -7.26 0z" fill="black"></path><path d="M213.87 217.5 a3.63 3.63 0 1 0 7.26 0 a3.63 3.63 0 1 0 -7.26 0zM416.87 130.5 a3.63 3.63 0 1 0 7.26 0 a3.63 3.63 0 1 0 -7.26 0zM967.87 130.5 a3.63 3.63 0 1 0 7.26 0 a3.63 3.63 0 1 0 -7.26 0zM880.87 130.5 a3.63 3.63 0 1 0 7.26 0 a3.63 3.63 0 1 0 -7.26 0zM735.87 72.5 a3.63 3.63 0 1 0 7.26 0 a3.63 3.63 0 1 0 -7.26 0zM416.87 101.5 a3.63 3.63 0 1 0 7.26 0 a3.63 3.63 0 1 0 -7.26 0zM706.87 130.5 a3.63 3.63 0 1 0 7.26 0 a3.63 3.63 0 1 0 -7.26 0zM1083.87 130.5 a3.63 3.63 0 1 0 7.26 0 a3.63 3.63 0 1 0 -7.26 0zM590.87 188.5 a3.63 3.63 0 1 0 7.26 0 a3.63 3.63 0 1 0 -7.26 0zM1025.87 72.5 a3.63 3.63 0 1 0 7.26 0 a3.63 3.63 0 1 0 -7.26 0zM300.87 130.5 a3.63 3.63 0 1 0 7.26 0 a3.63 3.63 0 1 0 -7.26 0zM1170.87 101.5 a3.63 3.63 0 1 0 7.26 0 a3.63 3.63 0 1 0 -7.26 0z" fill="black"></path></mask></defs></svg>