<svg xmlns="http://www.w3.org/2000/svg" version="1.1" xmlns:xlink="http://www.w3.org/1999/xlink" xmlns:svgjs="http://svgjs.com/svgjs" width="1440" height="768" preserveAspectRatio="none" viewBox="0 0 1440 768"><g mask="url(&quot;#SvgjsMask1039&quot;)" fill="none"><rect width="1440" height="768" x="0" y="0" fill="rgba(47, 47, 47, 1)"></rect><path d="M15 768L783 0L922.5 0L154.5 768z" fill="url(#SvgjsLinearGradient1040)"></path><path d="M498.20000000000005 768L1266.2 0L1927.7 0L1159.7 768z" fill="url(#SvgjsLinearGradient1040)"></path><path d="M1376 768L608 0L425 0L1193 768z" fill="url(#SvgjsLinearGradient1041)"></path><path d="M950.8 768L182.79999999999995 0L-48.200000000000045 0L719.8 768z" fill="url(#SvgjsLinearGradient1041)"></path><path d="M882.013072036649 768L1440 210.01307203664896L1440 768z" fill="url(#SvgjsLinearGradient1040)"></path><path d="M0 768L557.986927963351 768L 0 210.01307203664896z" fill="url(#SvgjsLinearGradient1041)"></path></g><defs><mask id="SvgjsMask1039"><rect width="1440" height="768" fill="#ffffff"></rect></mask><linearGradient x1="0%" y1="100%" x2="100%" y2="0%" id="SvgjsLinearGradient1040"><stop stop-color="rgba(215, 20, 130, 1)" offset="0"></stop><stop stop-opacity="0" stop-color="rgba(215, 20, 130, 1)" offset="0.66"></stop></linearGradient><linearGradient x1="100%" y1="100%" x2="0%" y2="0%" id="SvgjsLinearGradient1041"><stop stop-color="rgba(215, 20, 130, 1)" offset="0"></stop><stop stop-opacity="0" stop-color="rgba(215, 20, 130, 1)" offset="0.66"></stop></linearGradient></defs></svg>